<svg xmlns="http://www.w3.org/2000/svg" version="1.1" xmlns:xlink="http://www.w3.org/1999/xlink" xmlns:svgjs="http://svgjs.com/svgjs" width="1920" height="50" preserveAspectRatio="none" viewBox="0 0 1920 50"><g mask="url(&quot;#SvgjsMask4666&quot;)" fill="none"><rect width="1920" height="50" x="0" y="0" fill="url(#SvgjsLinearGradient4667)"></rect><g mask="url(&quot;#SvgjsMask4669&quot;)"><path d="M1935 25L1925 25L1915 25L1905 25L1895 25L1885 25L1875 25L1865 25L1855 25L1845 25" stroke="url(#SvgjsLinearGradient4668)" stroke-width="1.67"></path><path d="M1842.5 25 a2.5 2.5 0 1 0 5 0 a2.5 2.5 0 1 0 -5 0z" fill="url(#SvgjsLinearGradient4668)"></path><path d="M1515 35L1505 25L1495 25L1485 25L1475 25M1285 35L1275 25L1265 25L1255 25L1245 25L1235 25L1225 25L1215 25L1205 25L1195 25M1315 25L1305 25L1295 25L1285 25M1435 25L1425 35L1415 35M1365 35L1355 25L1345 25M1555 35L1545 25L1535 25L1525 25L1515 25M1775 35L1765 25L1755 25L1745 25L1735 25M1675 35L1665 25L1655 25L1645 25L1635 25M1695 35L1685 25L1675 25M1575 35L1565 25L1555 25M1705 35L1695 25M1785 35L1775 25M1345 35L1335 35L1325 35L1315 35M1825 35L1815 25L1805 25L1795 25L1785 25M1375 35L1365 25M1395 35L1385 25L1375 25M1835 35L1825 25M1165 25L1155 35L1145 35L1135 35L1125 35L1115 35L1105 35L1095 35L1085 35L1075 35L1065 35L1055 35L1045 35L1035 35L1025 35L1015 25L1005 25L995 25L985 25L975 25L965 25L955 25L945 25L935 25L925 25L915 25L905 25L895 25L885 25L875 25L865 25L855 25L845 25L835 25L825 25L815 25L805 25L795 25M1465 35L1455 25L1445 25M1935 35L1925 35L1915 35L1905 35L1895 35L1885 35L1875 35L1865 35L1855 35L1845 35L1835 35L1825 35L1815 35L1805 35L1795 35L1785 35L1775 35L1765 35L1755 35L1745 35L1735 35L1725 35L1715 35L1705 35L1695 35L1685 35L1675 35L1665 35L1655 35L1645 35L1635 35L1625 35L1615 35L1605 35L1595 35L1585 35L1575 35L1565 35L1555 35L1545 35L1535 35L1525 35L1515 35L1505 35L1495 35L1485 35L1475 35L1465 35L1455 35L1445 35L1435 25L1425 25L1415 25L1405 35L1395 35L1385 35L1375 35L1365 35L1355 35L1345 35L1335 25L1325 25L1315 25L1305 35L1295 35L1285 35L1275 35L1265 35L1255 35L1245 35L1235 35L1225 35L1215 35L1205 35L1195 35L1185 25L1175 25L1165 25L1155 25" stroke="url(#SvgjsLinearGradient4668)" stroke-width="1.67"></path><path d="M1152.5 25 a2.5 2.5 0 1 0 5 0 a2.5 2.5 0 1 0 -5 0zM1472.5 25 a2.5 2.5 0 1 0 5 0 a2.5 2.5 0 1 0 -5 0zM1192.5 25 a2.5 2.5 0 1 0 5 0 a2.5 2.5 0 1 0 -5 0zM1282.5 25 a2.5 2.5 0 1 0 5 0 a2.5 2.5 0 1 0 -5 0zM1412.5 35 a2.5 2.5 0 1 0 5 0 a2.5 2.5 0 1 0 -5 0zM1342.5 25 a2.5 2.5 0 1 0 5 0 a2.5 2.5 0 1 0 -5 0zM1512.5 25 a2.5 2.5 0 1 0 5 0 a2.5 2.5 0 1 0 -5 0zM1732.5 25 a2.5 2.5 0 1 0 5 0 a2.5 2.5 0 1 0 -5 0zM1632.5 25 a2.5 2.5 0 1 0 5 0 a2.5 2.5 0 1 0 -5 0zM1672.5 25 a2.5 2.5 0 1 0 5 0 a2.5 2.5 0 1 0 -5 0zM1552.5 25 a2.5 2.5 0 1 0 5 0 a2.5 2.5 0 1 0 -5 0zM1692.5 25 a2.5 2.5 0 1 0 5 0 a2.5 2.5 0 1 0 -5 0zM1772.5 25 a2.5 2.5 0 1 0 5 0 a2.5 2.5 0 1 0 -5 0zM1312.5 35 a2.5 2.5 0 1 0 5 0 a2.5 2.5 0 1 0 -5 0zM1782.5 25 a2.5 2.5 0 1 0 5 0 a2.5 2.5 0 1 0 -5 0zM1362.5 25 a2.5 2.5 0 1 0 5 0 a2.5 2.5 0 1 0 -5 0zM1372.5 25 a2.5 2.5 0 1 0 5 0 a2.5 2.5 0 1 0 -5 0zM1822.5 25 a2.5 2.5 0 1 0 5 0 a2.5 2.5 0 1 0 -5 0zM792.5 25 a2.5 2.5 0 1 0 5 0 a2.5 2.5 0 1 0 -5 0zM1442.5 25 a2.5 2.5 0 1 0 5 0 a2.5 2.5 0 1 0 -5 0z" fill="url(#SvgjsLinearGradient4668)"></path></g></g><defs><mask id="SvgjsMask4666"><rect width="1920" height="50" fill="#ffffff"></rect></mask><linearGradient x1="75.65%" y1="-935%" x2="24.35%" y2="1035%" gradientUnits="userSpaceOnUse" id="SvgjsLinearGradient4667"><stop stop-color="#0e2a47" offset="0"></stop><stop stop-color="rgba(0, 0, 0, 1)" offset="1"></stop></linearGradient><linearGradient x1="942.72192" y1="359.1" x2="1610.87808" y2="-309.1" gradientUnits="userSpaceOnUse" id="SvgjsLinearGradient4668"><stop stop-color="rgba(230, 233, 130, 1)" offset="0"></stop><stop stop-color="rgba(255, 255, 255, 1)" offset="1"></stop></linearGradient><mask id="SvgjsMask4669"><rect width="1920" height="50" fill="white"></rect><path d="M1843.75 25 a1.25 1.25 0 1 0 2.5 0 a1.25 1.25 0 1 0 -2.5 0z" fill="black"></path><path d="M1153.75 25 a1.25 1.25 0 1 0 2.5 0 a1.25 1.25 0 1 0 -2.5 0zM1473.75 25 a1.25 1.25 0 1 0 2.5 0 a1.25 1.25 0 1 0 -2.5 0zM1193.75 25 a1.25 1.25 0 1 0 2.5 0 a1.25 1.25 0 1 0 -2.5 0zM1283.75 25 a1.25 1.25 0 1 0 2.5 0 a1.25 1.25 0 1 0 -2.5 0zM1413.75 35 a1.25 1.25 0 1 0 2.5 0 a1.25 1.25 0 1 0 -2.5 0zM1343.75 25 a1.25 1.25 0 1 0 2.5 0 a1.25 1.25 0 1 0 -2.5 0zM1513.75 25 a1.25 1.25 0 1 0 2.5 0 a1.25 1.25 0 1 0 -2.5 0zM1733.75 25 a1.25 1.25 0 1 0 2.5 0 a1.25 1.25 0 1 0 -2.5 0zM1633.75 25 a1.25 1.25 0 1 0 2.5 0 a1.25 1.25 0 1 0 -2.5 0zM1673.75 25 a1.25 1.25 0 1 0 2.5 0 a1.25 1.25 0 1 0 -2.5 0zM1553.75 25 a1.25 1.25 0 1 0 2.5 0 a1.25 1.25 0 1 0 -2.5 0zM1693.75 25 a1.25 1.25 0 1 0 2.5 0 a1.25 1.25 0 1 0 -2.5 0zM1773.75 25 a1.25 1.25 0 1 0 2.5 0 a1.25 1.25 0 1 0 -2.5 0zM1313.75 35 a1.25 1.25 0 1 0 2.5 0 a1.25 1.25 0 1 0 -2.5 0zM1783.75 25 a1.25 1.25 0 1 0 2.5 0 a1.25 1.25 0 1 0 -2.5 0zM1363.75 25 a1.25 1.25 0 1 0 2.5 0 a1.25 1.25 0 1 0 -2.5 0zM1373.75 25 a1.25 1.25 0 1 0 2.5 0 a1.25 1.25 0 1 0 -2.5 0zM1823.75 25 a1.25 1.25 0 1 0 2.5 0 a1.25 1.25 0 1 0 -2.5 0zM793.75 25 a1.25 1.25 0 1 0 2.5 0 a1.25 1.25 0 1 0 -2.5 0zM1443.75 25 a1.25 1.25 0 1 0 2.5 0 a1.25 1.25 0 1 0 -2.5 0z" fill="black"></path></mask></defs></svg>