<svg xmlns="http://www.w3.org/2000/svg" version="1.1" xmlns:xlink="http://www.w3.org/1999/xlink" xmlns:svgjs="http://svgjs.com/svgjs" width="1920" height="1080" preserveAspectRatio="none" viewBox="0 0 1920 1080"><g mask="url(&quot;#SvgjsMask1162&quot;)" fill="none"><rect width="1920" height="1080" x="0" y="0" fill="url(#SvgjsRadialGradient1163)"></rect><path d="M1920 0L1511.43 0L1920 42.38z" fill="rgba(255, 255, 255, .1)"></path><path d="M1511.43 0L1920 42.38L1920 121.94L957.0400000000001 0z" fill="rgba(255, 255, 255, .075)"></path><path d="M957.04 0L1920 121.94L1920 267.03999999999996L882.51 0z" fill="rgba(255, 255, 255, .05)"></path><path d="M882.51 0L1920 267.03999999999996L1920 640.3699999999999L413.34 0z" fill="rgba(255, 255, 255, .025)"></path><path d="M0 1080L413.81 1080L0 942.02z" fill="rgba(0, 0, 0, .1)"></path><path d="M0 942.02L413.81 1080L560.87 1080L0 614.71z" fill="rgba(0, 0, 0, .075)"></path><path d="M0 614.71L560.87 1080L634.22 1080L0 372.73z" fill="rgba(0, 0, 0, .05)"></path><path d="M0 372.73L634.22 1080L966.71 1080L0 316.31z" fill="rgba(0, 0, 0, .025)"></path></g><defs><mask id="SvgjsMask1162"><rect width="1920" height="1080" fill="#ffffff"></rect></mask><radialGradient cx="100%" cy="0%" r="2202.91" gradientUnits="userSpaceOnUse" id="SvgjsRadialGradient1163"><stop stop-color="#0e2a47" offset="0"></stop><stop stop-color="rgba(0, 0, 0, 1)" offset="1"></stop></radialGradient></defs></svg>